<?xml version="1.0" encoding="UTF-8" standalone="no"?>
<svg
   xmlns:dc="http://purl.org/dc/elements/1.1/"
   xmlns:cc="http://creativecommons.org/ns#"
   xmlns:rdf="http://www.w3.org/1999/02/22-rdf-syntax-ns#"
   xmlns:svg="http://www.w3.org/2000/svg"
   xmlns="http://www.w3.org/2000/svg"
   viewBox="0 0 1280 720"
   height="720"
   width="1280"
   xml:space="preserve"
   id="svg2"
   version="1.1"><metadata
     id="metadata8"><rdf:RDF><cc:Work
         rdf:about=""><dc:format>image/svg+xml</dc:format><dc:type
           rdf:resource="http://purl.org/dc/dcmitype/StillImage" /></cc:Work></rdf:RDF></metadata><defs
     id="defs6"><clipPath
       id="clipPath20"
       clipPathUnits="userSpaceOnUse"><path
         id="path18"
         d="M 0,1.206994e-5 H 959.76 V 540.00001 H 0 Z" /></clipPath><clipPath
       id="clipPath34"
       clipPathUnits="userSpaceOnUse"><path
         id="path32"
         d="m -117.9473,-327.9474 h 1195.895 v 1195.895 h -1195.895 z" /></clipPath></defs><g
     transform="matrix(1.3333333,0,0,-1.3333333,0,720)"
     id="g10"><g
       id="g12" /><g
       id="g14"><g
         clip-path="url(#clipPath20)"
         id="g16"><path
           id="path22"
           style="fill:#ffffff;fill-opacity:1;fill-rule:nonzero;stroke:none"
           d="M 0,540 H 959.76 V 1.206994e-5 H 0 Z" /></g></g><g
       id="g24"><path
         id="path26"
         style="fill:#ffffff;fill-opacity:1;fill-rule:nonzero;stroke:none"
         d="M 0,540 H 960 V 1.40816e-5 H 0 Z" /></g><g
       id="g28"><g
         clip-path="url(#clipPath34)"
         id="g30"><path
           id="path36"
           style="fill:#6695b0;fill-opacity:1;fill-rule:nonzero;stroke:none"
           d="m 350.3285,324.1755 c -2.9898,2.7043 -6.573,4.7687 -10.7482,6.1918 -4.1767,1.4232 -8.7795,2.1348 -13.8083,2.1348 H 256.7319 V 310.865 h 64.6272 c 3.9868,0 7.0468,-1.0449 9.183,-3.1304 2.1347,-2.0897 3.2021,-5.1751 3.2021,-9.2533 v -29.4687 c 0,-4.0796 -1.0674,-7.165 -3.2021,-9.2519 -2.1362,-2.0883 -5.1962,-3.1304 -9.183,-3.1304 h -38.4352 v 37.8656 h -26.192 v -59.5041 h 69.0401 c 5.0288,0 9.6316,0.6863 13.8083,2.0644 4.1752,1.374 7.7584,3.4159 10.7482,6.1202 2.9897,2.7057 5.3129,6.0498 6.9751,10.0366 1.6595,3.9854 2.4906,8.5404 2.4906,13.6663 v 33.7367 c 0,5.1245 -0.8311,9.6556 -2.4906,13.5946 -1.6622,3.9376 -3.9854,7.2592 -6.9751,9.9649" /><path
           id="path38"
           style="fill:#6695b0;fill-opacity:1;fill-rule:nonzero;stroke:none"
           d="m 374.8818,272.8575 h 93.09734 v 21.63848 H 374.8818 Z" /><path
           id="path40"
           style="fill:#6695b0;fill-opacity:1;fill-rule:nonzero;stroke:none"
           d="m 374.8818,310.8652 h 93.09734 v 21.63707 H 374.8818 Z" /><path
           id="path42"
           style="fill:#6695b0;fill-opacity:1;fill-rule:nonzero;stroke:none"
           d="m 374.8818,234.992 h 93.09734 v 21.63848 H 374.8818 Z" /><path
           id="path44"
           style="fill:#6695b0;fill-opacity:1;fill-rule:nonzero;stroke:none"
           d="m 559.9374,269.0132 c 0,-4.0796 -1.0674,-7.1664 -3.2021,-9.2519 -2.1362,-2.0884 -5.1977,-3.1318 -9.1831,-3.1318 h -25.9065 c -3.9854,0 -7.0469,1.0434 -9.1816,3.1318 -2.1348,2.0855 -3.2036,5.1723 -3.2036,9.2519 v 29.4672 c 0,4.0783 1.0688,7.1651 3.2036,9.2534 2.1347,2.0869 5.1962,3.1318 9.1816,3.1318 h 25.9065 c 3.9854,0 7.0469,-1.0449 9.1831,-3.1318 2.1347,-2.0883 3.2021,-5.1751 3.2021,-9.2534 z m 16.656,55.1628 c -3.039,2.7029 -6.6447,4.7673 -10.82,6.1919 -4.1766,1.4232 -8.7794,2.1333 -13.8083,2.1333 h -34.8758 c -5.0303,0 -9.6316,-0.7101 -13.8069,-2.1333 -4.178,-1.4246 -7.7584,-3.489 -10.7482,-6.1919 -2.9897,-2.7056 -5.3157,-6.0287 -6.9752,-9.9649 -1.6608,-3.939 -2.4905,-8.4714 -2.4905,-13.5945 v -33.7382 c 0,-5.1244 0.8297,-9.6794 2.4905,-13.6648 1.6595,-3.9868 3.9855,-7.331 6.9752,-10.0366 2.9898,-2.7043 6.5702,-4.7463 10.7482,-6.1216 4.1753,-1.3767 8.7766,-2.063 13.8069,-2.063 h 34.8758 c 5.0289,0 9.6317,0.6863 13.8083,2.063 4.1753,1.3753 7.781,3.4173 10.82,6.1216 3.0347,2.7056 5.3846,6.0498 7.0455,10.0366 1.6594,3.9854 2.4905,8.5404 2.4905,13.6648 v 33.7382 c 0,5.1231 -0.8311,9.6555 -2.4905,13.5945 -1.6609,3.9362 -4.0108,7.2593 -7.0455,9.9649" /><path
           id="path46"
           style="fill:#6695b0;fill-opacity:1;fill-rule:nonzero;stroke:none"
           d="m 665.8468,332.5019 -21.3544,-29.0383 -21.3516,29.0383 H 593.959 l 35.8729,-48.8261 -35.7309,-48.6841 h 29.1818 l 21.2096,28.7543 21.2109,-28.7543 h 29.1818 l -35.8714,48.6841 36.0149,48.8261 z" /><path
           id="path48"
           style="fill:#6695b0;fill-opacity:1;fill-rule:nonzero;stroke:none"
           d="m 753.5349,298.9077 -21.6385,33.5947 h -28.8977 l 37.2974,-59.6447 v -37.8656 h 26.192 v 37.8656 l 37.4381,59.6447 h -29.0383 z" /><path
           id="path50"
           style="fill:#6695b0;fill-opacity:1;fill-rule:nonzero;stroke:none"
           d="m 840.37,308.9439 c 2.3724,1.2811 5.1723,1.921 8.3998,1.921 h 64.4851 v 21.637 h -68.8981 c -4.7476,0 -9.0888,-0.6187 -13.0264,-1.8492 -3.939,-1.2347 -7.3801,-3.0151 -10.3207,-5.3383 -2.9419,-2.3274 -5.3368,-5.2201 -7.1875,-8.6838 -1.8507,-3.465 -3.0615,-7.4265 -3.631,-11.8859 v -4.1288 c 0.3797,-4.4622 1.5174,-8.4237 3.4173,-11.8859 1.897,-3.4665 4.3426,-6.3845 7.3309,-8.7555 2.9898,-2.3724 6.4774,-4.1528 10.4628,-5.3383 3.9854,-1.1869 8.3027,-1.7789 12.9546,-1.7789 h 33.0238 c 2.5636,-0.3811 4.7448,-1.1883 6.5505,-2.4203 1.8,-1.2347 2.7028,-3.0839 2.7028,-5.552 0,-2.9419 -1.1869,-5.0527 -3.5579,-6.3339 -2.3724,-1.2811 -5.1751,-1.9209 -8.3983,-1.9209 h -64.4865 v -21.6385 h 68.898 c 4.6492,0 8.9693,0.6173 12.9547,1.8507 3.9854,1.2319 7.4477,3.0108 10.3924,5.3382 2.9392,2.3246 5.3369,5.2173 7.1875,8.6838 1.8521,3.4623 3.0601,7.4238 3.6311,11.8859 v 4.1289 c -0.4782,4.4593 -1.6369,8.4194 -3.4876,11.8859 -1.8521,3.4636 -4.2709,6.3578 -7.2593,8.6838 -2.9911,2.3231 -6.4787,4.0782 -10.4641,5.2665 -3.9854,1.1855 -8.3055,1.7803 -12.9547,1.7803 H 845.922 c -2.5622,0.2841 -4.7223,1.0885 -6.4773,2.4188 -1.7565,1.329 -2.6326,3.2247 -2.6326,5.6941 0,2.9405 1.1855,5.0542 3.5579,6.3353" /><path
           id="path52"
           style="fill:#6695b0;fill-opacity:1;fill-rule:nonzero;stroke:none"
           d="m 161.4676,284.8091 c 0,6.5744 3.9236,12.2389 9.5445,14.8096 -6.9907,28.4477 -32.6539,49.5546 -63.2575,49.5546 H 70.24204 v -24.6789 h 38.89356 v -81.736 H 70.24204 v -23.8899 h 37.51256 c 31.1098,0 57.1106,21.8115 63.5865,50.9736 -5.8009,2.4961 -9.8735,8.2619 -9.8735,14.967" /><path
           id="path54"
           style="fill:#6695b0;fill-opacity:1;fill-rule:nonzero;stroke:none"
           d="m 183.1332,300.1663 c 6.3438,-2.2276 10.91,-8.2619 10.91,-15.3566 0,-7.3507 -4.8967,-13.5735 -11.5962,-15.5929 5.514,-11.4443 17.2241,-19.342 30.7779,-19.342 h 19.6612 v 12.5201 h -20.384 v 42.8382 h 20.384 v 12.935 h -19.6612 c -13.0166,0 -24.3301,-7.2859 -30.0917,-18.0018" /><path
           id="path56"
           style="fill:#e98d64;fill-opacity:1;fill-rule:nonzero;stroke:none"
           d="m 46.74389,263.3989 h 41.24206 v 41.24347 H 46.74389 Z" /><path
           id="path58"
           style="fill:#e98d64;fill-opacity:1;fill-rule:nonzero;stroke:none"
           d="m 180.0199,291.973 c -0.72,0.2278 -1.471,0.3853 -2.2641,0.3853 -1.9984,0 -3.804,-0.7945 -5.1555,-2.0658 -1.4639,-1.3782 -2.3935,-3.3188 -2.3935,-5.4831 0,-2.2163 0.9788,-4.1935 2.506,-5.5759 1.3388,-1.2122 3.0967,-1.9716 5.043,-1.9716 0.675,0 1.319,0.1181 1.9434,0.2855 3.2176,0.8634 5.6041,3.7772 5.6041,7.262 0,3.368 -2.2318,6.1947 -5.2834,7.1636" /></g></g></g></svg>